<?xml version="1.0" encoding="UTF-8"?>
<svg width="1920px" height="1080px" viewBox="0 0 1920 1080" version="1.1" xmlns="http://www.w3.org/2000/svg" xmlns:xlink="http://www.w3.org/1999/xlink">
    <!-- Generator: Sketch 58 (84663) - https://sketch.com -->
    <title>登陆2</title>
    <desc>Created with Sketch.</desc>
    <defs>
        <polygon id="path-1" points="0 0 129.084507 0 129.084507 42 0 42"></polygon>
        <path d="M65.0657963,6.9408 C66.7300858,5.343 68.0023187,2.898 68.7522096,0.453 L70.9388411,0.8766 C70.7100914,1.692 70.3834776,2.4744 70.0574641,3.2568 L78.9312735,3.2568 L78.9312735,5.2128 L74.1353338,5.2128 L74.1353338,7.1034 C74.1353338,7.4952 74.1353338,7.8534 74.0698909,8.2776 L79.7472077,8.2776 L79.7472077,10.2666 L73.7114563,10.2666 C73.679035,10.4622 73.6135922,10.6248 73.5487498,10.821 C74.8203822,11.5056 78.5728388,13.788 79.4860367,14.4402 L77.7899263,16.1028 C76.8437068,15.288 74.4295264,13.5594 72.7982584,12.4506 C71.6887321,14.3094 69.7308503,16.1352 66.3056079,17.7 C66.0114153,17.1786 65.3263669,16.3962 64.7722041,16.0374 C68.9155165,14.4072 70.6446485,12.255 71.329697,10.2666 L65.0657963,10.2666 L65.0657963,8.2776 L71.7541749,8.2776 C71.8196178,7.8534 71.8196178,7.4952 71.8196178,7.1034 L71.8196178,5.2128 L69.0788235,5.2128 C68.4592178,6.321 67.7411477,7.332 67.0230776,8.1144 C66.5667789,7.7886 65.6205594,7.2018 65.0657963,6.9408 Z M115.178203,0.5832 L117.592384,0.5832 L117.592384,4.626 L125.488153,4.626 L125.488153,6.7452 L117.592384,6.7452 L117.592384,10.8864 L126.727364,10.8864 L126.727364,13.005 L105.97778,13.005 L105.97778,10.8864 L115.178203,10.8864 L115.178203,6.7452 L110.284399,6.7452 C109.468465,8.1144 108.554667,9.354 107.609048,10.3644 C107.18517,9.9732 106.20653,9.321 105.618745,9.0276 C107.706912,7.071 109.436044,4.0722 110.447106,1.0068 L112.731001,1.5288 C112.372566,2.5722 111.915067,3.6156 111.426347,4.626 L115.178203,4.626 L115.178203,0.5832 Z M33.4845211,2.6046 L34.8221969,0.9096 C36.6816142,1.7244 38.9006669,3.0936 40.0095929,4.2024 L38.5740531,6.0936 C37.5299695,4.9848 35.3115172,3.4854 33.4845211,2.6046 Z M98.016568,2.8002 L99.8111428,1.3332 C101.89991,2.7672 104.378933,4.8216 105.48846,6.4194 L103.596021,8.0166 C102.551937,6.4518 100.170178,4.2678 98.016568,2.8002 Z M43.9901988,1.3656 L46.2086512,1.3656 L46.2086512,7.2996 L50.5476918,7.2996 L50.5476918,9.549 L46.2086512,9.549 L46.2086512,15.4182 L49.6663148,15.4182 L49.6663148,25.9494 L42.3913521,25.9494 L42.3913521,28.5246 L40.2377422,28.5246 L40.2377422,15.4182 L43.9901988,15.4182 L43.9901988,9.549 L39.1288162,9.549 L39.1288162,7.2996 L43.9901988,7.2996 L43.9901988,1.3656 Z M42.3913521,23.7972 L47.5133053,23.7972 L47.5133053,17.5368 L42.3913521,17.5368 L42.3913521,23.7972 Z M51.8853675,1.7568 L60.9218834,1.7568 L60.9218834,27.351 C60.9218834,28.59 60.6288916,29.2092 59.8135578,29.6004 C58.998224,29.9592 57.7247904,30.0246 55.5069384,29.9916 C55.4090744,29.4378 55.0824605,28.5246 54.7888683,27.9378 C56.3222722,27.9702 57.6923691,27.9702 58.0844258,27.9702 C58.5407245,27.9378 58.7040314,27.807 58.7040314,27.3186 L58.7040314,19.5264 L53.8432493,19.5264 C53.4511926,23.3736 52.4401307,27.4488 49.7317576,30.3828 C49.4057442,29.9916 48.4601251,29.3076 47.9371828,29.079 C51.5263325,25.1988 51.8853675,19.5264 51.8853675,14.9286 L51.8853675,1.7568 Z M54.038377,9.4842 L58.7040314,9.4842 L58.7040314,3.9414 L54.038377,3.9414 L54.038377,9.4842 Z M54.038377,14.9286 C54.038377,15.6786 54.038377,16.5264 53.9729342,17.3412 L58.7040314,17.3412 L58.7040314,11.6688 L54.038377,11.6688 L54.038377,14.9286 Z M3.24092172,1.7568 L25.4584668,1.7568 L25.4584668,12.9078 L15.5405739,12.9078 L15.5405739,15.5814 L26.0786728,15.5814 L26.0786728,17.5698 L15.5405739,17.5698 L15.5405739,20.5038 L28.8194671,20.5038 L28.8194671,22.6554 L0.0114074681,22.6554 L0.0114074681,20.5038 L13.159415,20.5038 L13.159415,17.5698 L2.68675893,17.5698 L2.68675893,15.5814 L13.159415,15.5814 L13.159415,12.9078 L3.24092172,12.9078 L3.24092172,1.7568 Z M15.5405739,10.8534 L23.0448867,10.8534 L23.0448867,3.8106 L15.5405739,3.8106 L15.5405739,10.8534 Z M5.55723813,10.8534 L13.1588146,10.8534 L13.1588146,3.8106 L5.55723813,3.8106 L5.55723813,10.8534 Z M81.0848834,14.4726 L81.0848834,3.159 L92.4713377,3.159 L92.4713377,14.4726 L81.0848834,14.4726 Z M83.3681782,12.255 L90.0889781,12.255 L90.0889781,5.343 L83.3681782,5.343 L83.3681782,12.255 Z M17.0085349,9.7446 C17.8574907,8.343 18.9664166,6.126 19.5211798,4.5936 L21.4130183,5.3106 C20.4998205,7.071 19.4233158,9.093 18.5749604,10.3968 L17.0085349,9.7446 Z M7.38483459,5.1804 L8.9830809,4.626 C9.92930036,6.126 10.8424982,8.1144 11.1036692,9.3864 L9.40755879,10.0386 C9.14638782,8.7666 8.26501081,6.7128 7.38483459,5.1804 Z M32.1150246,11.3424 L33.4190783,9.6138 C35.3115172,10.332 37.6608552,11.6358 38.8028028,12.6138 L37.4321055,14.5704 C36.2901579,13.527 34.0068631,12.1572 32.1150246,11.3424 Z M97.6257121,13.3314 L104.54224,13.3314 L104.54224,23.6994 C106.075644,26.0142 108.946724,27.1878 112.600716,27.351 C116.156243,27.4812 123.399385,27.3834 127.282127,27.1224 C126.955513,27.7092 126.596478,28.8504 126.466193,29.6004 C122.877644,29.7636 116.189265,29.829 112.633137,29.6982 C108.457403,29.535 105.553902,28.3296 103.465135,25.8516 C101.89991,27.2208 100.268642,28.6224 98.6049532,29.9916 L97.2012342,27.5796 C98.7022168,26.5686 100.529213,25.2312 102.161081,23.8626 L102.161081,15.5814 L97.6257121,15.5814 L97.6257121,13.3314 Z M108.881281,24.7428 L108.881281,15.516 L124.378626,15.516 L124.378626,24.7428 L108.881281,24.7428 Z M111.26304,22.7208 L121.931424,22.7208 L121.931424,17.5044 L111.26304,17.5044 L111.26304,22.7208 Z M69.7962932,16.9506 L89.6975218,16.9506 L89.6975218,30.2526 L87.2509201,30.2526 L87.2509201,29.1114 L72.1780524,29.1114 L72.1780524,30.3174 L69.7962932,30.3174 L69.7962932,16.9506 Z M72.1780524,22.0038 L87.2509201,22.0038 L87.2509201,18.9396 L72.1780524,18.9396 L72.1780524,22.0038 Z M72.1780524,27.1224 L87.2509201,27.1224 L87.2509201,23.895 L72.1780524,23.895 L72.1780524,27.1224 Z M32.7346302,28.6548 C34.0392843,26.1774 35.8987016,21.9384 37.2369777,18.3192 L39.1618379,19.5912 C37.9544474,22.9818 36.2901579,26.9592 34.8870393,29.9268 L32.7346302,28.6548 Z M22.4901235,24.7104 L24.6755542,23.9604 C26.2744009,25.5576 28.101397,27.9054 28.9821736,29.4378 L26.633436,30.3504 C25.8505234,28.8504 24.0559486,26.4384 22.4901235,24.7104 Z M0.0438286931,29.3724 C1.51239011,28.1334 2.88248706,25.9494 3.66539961,23.9604 L5.98171602,24.5142 C5.16638225,26.601 3.86052735,28.9812 2.29530265,30.4482 L0.0438286931,29.3724 Z M15.8996089,24.8406 L18.1510829,24.384 C18.9009738,26.0142 19.716908,28.1988 20.0105002,29.535 L17.6287409,30.1224 C17.3351487,28.7526 16.5852578,26.5362 15.8996089,24.8406 Z M9.21183066,24.7752 L11.4627042,24.612 C11.8865817,26.2746 12.1807743,28.5246 12.1807743,29.796 L9.79841467,30.1224 C9.79841467,28.7856 9.57086571,26.5362 9.21183066,24.7752 Z" id="path-3"></path>
        <radialGradient cx="37.1841746%" cy="32.4763522%" fx="37.1841746%" fy="32.4763522%" r="52.3029478%" gradientTransform="translate(0.371842,0.324764),scale(0.550000,1.000000),rotate(12.964318),translate(-0.371842,-0.324764)" id="radialGradient-5">
            <stop stop-color="#12FFE1" offset="0%"></stop>
            <stop stop-color="#1BEDD2" offset="100%"></stop>
        </radialGradient>
        <radialGradient cx="38.1690365%" cy="27.156985%" fx="38.1690365%" fy="27.156985%" r="130.276374%" gradientTransform="translate(0.381690,0.271570),scale(0.550000,1.000000),rotate(56.608877),translate(-0.381690,-0.271570)" id="radialGradient-6">
            <stop stop-color="#7EF0F2" stop-opacity="0.5" offset="0%"></stop>
            <stop stop-color="#1BEDD2" offset="100%"></stop>
        </radialGradient>
        <ellipse id="path-7" cx="66" cy="283" rx="20" ry="11"></ellipse>
        <radialGradient cx="37.1841746%" cy="32.4763522%" fx="37.1841746%" fy="32.4763522%" r="51.1986006%" gradientTransform="translate(0.371842,0.324764),scale(0.562514,1.000000),rotate(13.248993),translate(-0.371842,-0.324764)" id="radialGradient-8">
            <stop stop-color="#12FFE1" offset="0%"></stop>
            <stop stop-color="#1BEDD2" offset="100%"></stop>
        </radialGradient>
        <radialGradient cx="38.1690365%" cy="27.156985%" fx="38.1690365%" fy="27.156985%" r="129.405415%" gradientTransform="translate(0.381690,0.271570),scale(0.562514,1.000000),rotate(57.198522),translate(-0.381690,-0.271570)" id="radialGradient-9">
            <stop stop-color="#7EF0F2" stop-opacity="0.5" offset="0%"></stop>
            <stop stop-color="#1BEDD2" offset="100%"></stop>
        </radialGradient>
        <ellipse id="path-10" cx="627.830537" cy="467.782609" rx="19.8523527" ry="11.167222"></ellipse>
        <linearGradient x1="0.897381757%" y1="100%" x2="0.897381757%" y2="0%" id="linearGradient-11">
            <stop stop-color="#73A0FA" offset="0%"></stop>
            <stop stop-color="#C1DAFF" offset="100%"></stop>
        </linearGradient>
        <linearGradient x1="0.897381757%" y1="100%" x2="0.897381757%" y2="0%" id="linearGradient-12">
            <stop stop-color="#73A0FA" offset="0%"></stop>
            <stop stop-color="#C1DAFF" offset="100%"></stop>
        </linearGradient>
        <linearGradient x1="0.897381757%" y1="100%" x2="0.897381757%" y2="0%" id="linearGradient-13">
            <stop stop-color="#ABC6FE" offset="0%"></stop>
            <stop stop-color="#C1DAFF" offset="100%"></stop>
        </linearGradient>
        <linearGradient x1="0.897381757%" y1="100%" x2="0.897381757%" y2="0%" id="linearGradient-14">
            <stop stop-color="#ABC6FE" offset="0%"></stop>
            <stop stop-color="#C1DAFF" offset="100%"></stop>
        </linearGradient>
        <linearGradient x1="0.897381757%" y1="100%" x2="0.897381757%" y2="0%" id="linearGradient-15">
            <stop stop-color="#ABC6FE" offset="0%"></stop>
            <stop stop-color="#C1DAFF" offset="100%"></stop>
        </linearGradient>
        <linearGradient x1="37.5082153%" y1="198.667123%" x2="37.5082153%" y2="-74.9118657%" id="linearGradient-16">
            <stop stop-color="#BED8FE" offset="0%"></stop>
            <stop stop-color="#FAFAFB" offset="100%"></stop>
        </linearGradient>
        <linearGradient x1="37.5082153%" y1="198.667123%" x2="37.5082153%" y2="-74.9118657%" id="linearGradient-17">
            <stop stop-color="#BED8FE" offset="0%"></stop>
            <stop stop-color="#FAFAFB" offset="100%"></stop>
        </linearGradient>
        <linearGradient x1="37.5082153%" y1="198.667123%" x2="37.5082153%" y2="-74.9118657%" id="linearGradient-18">
            <stop stop-color="#BED8FE" offset="0%"></stop>
            <stop stop-color="#FAFAFB" offset="100%"></stop>
        </linearGradient>
        <linearGradient x1="37.5082153%" y1="198.667123%" x2="37.5082153%" y2="-74.9118657%" id="linearGradient-19">
            <stop stop-color="#BED8FE" offset="0%"></stop>
            <stop stop-color="#FAFAFB" offset="100%"></stop>
        </linearGradient>
        <linearGradient x1="37.5082153%" y1="198.667123%" x2="37.5082153%" y2="-74.9118657%" id="linearGradient-20">
            <stop stop-color="#BED8FE" offset="0%"></stop>
            <stop stop-color="#FAFAFB" offset="100%"></stop>
        </linearGradient>
        <linearGradient x1="0.897381757%" y1="52.6557922%" x2="31.310754%" y2="41.5664989%" id="linearGradient-21">
            <stop stop-color="#73A0FA" offset="0%"></stop>
            <stop stop-color="#A4C5FD" offset="63.4312672%"></stop>
            <stop stop-color="#C1DAFF" offset="100%"></stop>
        </linearGradient>
        <linearGradient x1="0.897381757%" y1="52.6368435%" x2="31.310754%" y2="41.626671%" id="linearGradient-22">
            <stop stop-color="#73A0FA" offset="0%"></stop>
            <stop stop-color="#C1DAFF" offset="100%"></stop>
        </linearGradient>
        <linearGradient x1="0.897381757%" y1="52.6025789%" x2="31.310754%" y2="41.7354786%" id="linearGradient-23">
            <stop stop-color="#73A0FA" offset="0%"></stop>
            <stop stop-color="#C1DAFF" offset="100%"></stop>
        </linearGradient>
        <linearGradient x1="0.897381757%" y1="52.6151742%" x2="31.310754%" y2="41.6954818%" id="linearGradient-24">
            <stop stop-color="#73A0FA" offset="0%"></stop>
            <stop stop-color="#C1DAFF" offset="100%"></stop>
        </linearGradient>
        <linearGradient x1="0.897381757%" y1="52.6433214%" x2="31.310754%" y2="41.6061001%" id="linearGradient-25">
            <stop stop-color="#73A0FA" offset="0%"></stop>
            <stop stop-color="#C1DAFF" offset="100%"></stop>
        </linearGradient>
    </defs>
    <g id="登陆2" stroke="none" stroke-width="1" fill="none" fill-rule="evenodd">
        <rect id="矩形" fill="#FFFFFF" x="0" y="0" width="1920" height="1080"></rect>
        <g id="编组" transform="translate(60.000000, 56.000000)">
            <g transform="translate(69.000000, 0.000000)">
                <g>
                    <mask id="mask-2" fill="white">
                        <use xlink:href="#path-1"></use>
                    </mask>
                    <g id="Clip-2"></g>
                </g>
                <g transform="translate(1.801179, 5.400000)">
                    <mask id="mask-4" fill="white">
                        <use xlink:href="#path-3"></use>
                    </mask>
                    <g id="Clip-4"></g>
                    <polygon id="Fill-3" fill="#4B7790" mask="url(#mask-4)" points="-2.99055781 33.4482 130.284092 33.4482 130.284092 -2.547 -2.99055781 -2.547"></polygon>
                </g>
            </g>
            <path d="M31.5,2.8098 C30.981,3.1098 30.4758,3.432 29.9862,3.774 C27.2988,2.3694 24.2424,1.575 21,1.575 C10.272,1.575 1.575,10.272 1.575,21 C1.575,31.7286 10.272,40.425 21,40.425 C24.2424,40.425 27.2988,39.6312 29.9862,38.226 C30.4758,38.5686 30.981,38.8902 31.5,39.1908 C28.4112,40.9776 24.825,42 21,42 C9.402,42 0,32.598 0,21 C0,9.402 9.402,0 21,0 C24.825,0 28.4112,1.023 31.5,2.8098 M26.5218,6.8076 L26.5218,6.8076 C26.1438,7.2198 25.782,7.647 25.4376,8.088 C24.0462,7.6098 22.5534,7.35 21,7.35 C13.4616,7.35 7.35,13.4616 7.35,21 C7.35,28.539 13.4616,34.65 21,34.65 C22.5534,34.65 24.0462,34.3908 25.4376,33.9126 C25.782,34.3536 26.1438,34.7808 26.5218,35.193 C24.81,35.8596 22.9476,36.225 21,36.225 C12.5916,36.225 5.775,29.409 5.775,21 C5.775,12.5916 12.5916,5.775 21,5.775 C22.9476,5.775 24.81,6.141 26.5218,6.8076 M23.1228,11.7894 L23.1228,11.7894 C22.8876,12.2706 22.6698,12.7614 22.4718,13.2624 C21.9948,13.1724 21.5028,13.125 21,13.125 C16.6506,13.125 13.125,16.6512 13.125,21 C13.125,25.3494 16.6506,28.875 21,28.875 C21.5028,28.875 21.9948,28.8282 22.4718,28.7382 C22.6698,29.2386 22.8876,29.73 23.1228,30.2106 C22.44,30.3678 21.7296,30.45 21,30.45 C15.7812,30.45 11.55,26.2194 11.55,21 C11.55,15.7812 15.7812,11.55 21,11.55 C21.7296,11.55 22.44,11.6328 23.1228,11.7894 M42,42 C30.402,42 21,32.598 21,21 C21,9.402 30.402,0 42,0 C53.598,0 63,9.402 63,21 C63,32.598 53.598,42 42,42 M31.5,2.8098 L31.5,2.8098 C30.981,3.1098 30.4758,3.432 29.9862,3.774 C36.1902,7.0176 40.425,13.5144 40.425,21 C40.425,28.4862 36.1902,34.983 29.9862,38.226 C30.4758,38.5686 30.981,38.8902 31.5,39.1908 C37.7766,35.5596 42,28.773 42,21 C42,13.227 37.7766,6.4404 31.5,2.8098 M26.5218,6.8076 L26.5218,6.8076 C26.1438,7.2198 25.782,7.647 25.4376,8.088 C30.798,9.9294 34.65,15.015 34.65,21 C34.65,26.985 30.798,32.0712 25.4376,33.9126 C25.782,34.3536 26.1438,34.7808 26.5218,35.193 C32.2008,32.982 36.225,27.4608 36.225,21 C36.225,14.5392 32.2008,9.0186 26.5218,6.8076 M23.1228,11.7894 L23.1228,11.7894 C22.8876,12.2706 22.6698,12.7614 22.4718,13.2624 C26.1174,13.9518 28.875,17.154 28.875,21 C28.875,24.8466 26.1174,28.0488 22.4718,28.7382 C22.6698,29.2386 22.8876,29.73 23.1228,30.2106 C27.3198,29.2476 30.45,25.4898 30.45,21 C30.45,16.5108 27.3198,12.7524 23.1228,11.7894" id="Fill-5" fill="#4B7790"></path>
        </g>
        <g id="编组" transform="translate(21.500000, 509.000000) scale(-1, 1) rotate(-360.000000) translate(-21.500000, -509.000000) translate(-718.000000, 138.000000)">
            <path d="M97.1691838,469 C49.3506562,476.14881 16,492.279544 16,511.033393 C16,536.420049 77.1131317,557 152.5,557 C227.886868,557 289,536.420049 289,511.033393 C289,495.838556 267.106477,482.3657 233.362881,473.996976" id="路径" stroke="#5692A4"></path>
            <path d="M17.9857143,620.642857 C17.9857143,646.797485 78.6575266,668 153.5,668 L153.5,668 C228.342473,668 289.014286,646.797485 289.014286,620.642857 M17.9857143,515 L17.9857143,624.285714 M289.014286,515 L289.014286,624.285714" id="形状结合" stroke="#5692A4"></path>
            <path d="M86.5997298,515 C85.5520996,516.653376 85,518.370922 85,520.133072 C85,533.314412 115.892352,544 154,544 C192.107648,544 223,533.314412 223,520.133072" id="路径" stroke="#5692A4"></path>
            <path d="M139.383721,249.621495 L87,515" id="路径-4" stroke="#5692A4"></path>
            <path d="M217.385714,273.619816 L175.614286,541.380184" id="路径-5" stroke="#5692A4"></path>
            <path d="M260.8,287.621212 L223,523" id="路径-6" stroke="#5692A4"></path>
            <ellipse id="椭圆形" stroke="#5692A4" transform="translate(65.591663, 251.937804) rotate(1.000000) translate(-65.591663, -251.937804) " cx="65.5916625" cy="251.937804" rx="64.3508912" ry="43.4829543"></ellipse>
            <ellipse id="椭圆形" stroke="#36CFC9" cx="65.5" cy="263.5" rx="56.5" ry="30.5"></ellipse>
            <ellipse id="椭圆形" stroke="#13C2C2" cx="65.5" cy="273" rx="39.5" ry="21"></ellipse>
            <ellipse id="椭圆形" stroke="#FFFFFF" fill="#13C2C2" cx="66" cy="279.5" rx="25" ry="14.5"></ellipse>
            <g id="椭圆形">
                <use fill-opacity="0.3" fill="url(#radialGradient-5)" xlink:href="#path-7"></use>
                <use fill="url(#radialGradient-6)" xlink:href="#path-7"></use>
            </g>
            <path d="" id="路径-7" stroke="#979797"></path>
            <path d="" id="路径-8" stroke="#979797"></path>
            <path d="" id="路径-9" stroke="#979797"></path>
            <path d="M47,210.64 C47,191.546667 52.3650794,182 63.0952381,182 C79.1904762,182 554,361 554,361" id="路径" stroke="#5692A4"></path>
            <path d="M61,181.968981 C77.0307692,162.31466 90.3897436,150 101.076923,150 C117.107692,150 582,349 582,349" id="形状" stroke="#5692A4"></path>
            <ellipse id="椭圆形" stroke="#5692A4" transform="translate(629.736297, 410.786348) rotate(13.000000) translate(-629.736297, -410.786348) " cx="629.736297" cy="410.786348" rx="98.6860697" ry="67.0838996"></ellipse>
            <ellipse id="椭圆形" stroke="#13C2C2" transform="translate(627.369922, 427.595417) rotate(12.000000) translate(-627.369922, -427.595417) " cx="627.369922" cy="427.595417" rx="78.9488538" ry="50.3913296"></ellipse>
            <ellipse id="椭圆形" stroke="#13C2C2" transform="translate(627.980492, 445.872423) rotate(9.000000) translate(-627.980492, -445.872423) " cx="627.980492" cy="445.872423" rx="53.9483548" ry="31.5689818"></ellipse>
            <ellipse id="椭圆形" stroke="#FFFFFF" fill="#13C2C2" transform="translate(627.600210, 460.215608) rotate(8.000000) translate(-627.600210, -460.215608) " cx="627.60021" cy="460.215608" rx="39.474387" ry="19.7306418"></ellipse>
            <g id="椭圆形" transform="translate(627.830537, 467.782609) rotate(5.000000) translate(-627.830537, -467.782609) ">
                <use fill-opacity="0.3" fill="url(#radialGradient-8)" xlink:href="#path-10"></use>
                <use fill="url(#radialGradient-9)" xlink:href="#path-10"></use>
            </g>
            <path d="M601,343.21633 C699.52953,135.877613 748.794294,32.208255 748.794294,32.208255 C748.794294,32.208255 777.214498,-13.4730369 818.802118,3.97065972 C835.040044,10.7815677 839.237002,16.3657502 843.11039,25.4990024 C847.359486,35.5181559 844.442493,54.226504 834.359412,81.6240468 L694.343765,364" id="形状" stroke="#5692A4"></path>
            <path d="M783.252887,93.9445618 C804.795147,99.2642043 825.564403,86.3479416 829.642319,65.0952814 C833.720234,43.8426213 819.562585,22.3015139 798.020325,16.9818713 C776.478064,11.6622287 755.708808,24.5784915 751.630893,45.8311516 C747.552977,67.0838118 761.710626,88.6249192 783.252887,93.9445618 Z" id="椭圆形" stroke="#13C2C2" transform="translate(790.636606, 55.463217) rotate(-105.000000) translate(-790.636606, -55.463217) "></path>
            <path d="M124.63307,153.236111 L265.608183,148.827576 C284.807484,148.227181 300.858309,163.304572 301.458704,182.503873 C301.48209,183.251712 301.481339,184.000111 301.456451,184.747901 L301.456451,184.747901 L301.456451,184.747901 L104.139205,190.918353 L104.732336,173.096924 C105.092824,162.265545 113.80099,153.574849 124.63307,153.236111 Z" id="矩形" stroke="#5692A4" transform="translate(203.414873, 169.293149) rotate(23.000000) translate(-203.414873, -169.293149) "></path>
            <path d="M254.481643,149.789289 C254.744916,141.607165 237.270996,135.507807 215.45255,136.165991 C193.634103,136.824175 175.733332,143.99066 175.470058,152.172783" id="路径" stroke="#5692A4" transform="translate(214.977319, 144.145070) rotate(22.000000) translate(-214.977319, -144.145070) "></path>
            <path d="M117.705391,665.481438 C126.970359,700.223512 138.550855,725.039543 152.446878,739.92953" id="路径-16" stroke="#5692A4" stroke-linecap="round" transform="translate(135.076134, 702.705484) rotate(-4.000000) translate(-135.076134, -702.705484) "></path>
            <path d="M196,666 C185.066667,704.4 171.4,728.4 155,738" id="路径-17" stroke="#5692A4" stroke-linecap="round"></path>
            <path d="M130,247 L541.379518,373.377451" id="路径-10" stroke="#5692A4"></path>
        </g>
        <g id="编组-8" opacity="0.187593006" transform="translate(1052.000000, 657.000000)" stroke-width="2">
            <ellipse id="椭圆形" stroke="url(#linearGradient-11)" cx="254" cy="81.5" rx="59" ry="18.5"></ellipse>
            <ellipse id="椭圆形" stroke="url(#linearGradient-12)" cx="254" cy="81" rx="111" ry="35"></ellipse>
            <ellipse id="椭圆形" stroke="url(#linearGradient-13)" cx="254" cy="81" rx="156" ry="49"></ellipse>
            <ellipse id="椭圆形" stroke="url(#linearGradient-14)" cx="253.5" cy="81" rx="206.5" ry="65"></ellipse>
            <ellipse id="椭圆形" stroke="url(#linearGradient-15)" cx="253.5" cy="80.5" rx="253.5" ry="80.5"></ellipse>
        </g>
        <g id="编组-8" opacity="0.610607329" transform="translate(1419.000000, 851.000000)" stroke-width="2">
            <ellipse id="椭圆形" stroke="url(#linearGradient-16)" cx="212.5" cy="81.5" rx="49.5" ry="18.5"></ellipse>
            <ellipse id="椭圆形" stroke="url(#linearGradient-17)" cx="212.5" cy="81" rx="93.5" ry="35"></ellipse>
            <ellipse id="椭圆形" stroke="url(#linearGradient-18)" cx="213" cy="80.5" rx="131" ry="49.5"></ellipse>
            <ellipse id="椭圆形" stroke="url(#linearGradient-19)" cx="212" cy="81" rx="173" ry="65"></ellipse>
            <ellipse id="椭圆形" stroke="url(#linearGradient-20)" cx="212.5" cy="80.5" rx="212.5" ry="80.5"></ellipse>
        </g>
        <g id="编组-8" opacity="0.637625558" transform="translate(60.000000, 886.000000)" stroke-width="2">
            <ellipse id="椭圆形" stroke="url(#linearGradient-21)" cx="549" cy="127.5" rx="128" ry="29.5"></ellipse>
            <ellipse id="椭圆形" stroke="url(#linearGradient-22)" cx="549.5" cy="127" rx="239.5" ry="55"></ellipse>
            <ellipse id="椭圆形" stroke="url(#linearGradient-23)" cx="548.5" cy="126" rx="337.5" ry="77"></ellipse>
            <ellipse id="椭圆形" stroke="url(#linearGradient-24)" cx="549" cy="126" rx="446" ry="102"></ellipse>
            <ellipse id="椭圆形" stroke="url(#linearGradient-25)" cx="548" cy="126" rx="548" ry="126"></ellipse>
        </g>
        <g id="编组-4" transform="translate(1298.000000, 146.000000)">
            <g id="编组-3">
                <g id="编组-2" transform="translate(0.000000, 0.000300)"></g>
                <g id="编组" transform="translate(17.000300, 0.000000)"></g>
            </g>
        </g>
    </g>
</svg>