<?xml version="1.0" encoding="UTF-8"?>
<svg width="1920px" height="1080px" viewBox="0 0 1920 1080" version="1.1" xmlns="http://www.w3.org/2000/svg" xmlns:xlink="http://www.w3.org/1999/xlink">
    <!-- Generator: Sketch 58 (84663) - https://sketch.com -->
    <title>深色</title>
    <desc>Created with Sketch.</desc>
    <defs>
        <linearGradient x1="91.1273486%" y1="52.5545118%" x2="51.5334288%" y2="34.639499%" id="linearGradient-1">
            <stop stop-color="#5692A4" offset="0%"></stop>
            <stop stop-color="#517481" offset="100%"></stop>
        </linearGradient>
        <linearGradient x1="0%" y1="44.3077435%" x2="20.8441127%" y2="62.7615915%" id="linearGradient-2">
            <stop stop-color="#2508BE" stop-opacity="0.5" offset="0%"></stop>
            <stop stop-color="#082D74" stop-opacity="0.5" offset="100%"></stop>
        </linearGradient>
        <linearGradient x1="62.1518706%" y1="34.639499%" x2="50%" y2="65.360501%" id="linearGradient-3">
            <stop stop-color="#5BFFFE" stop-opacity="0.5" offset="0%"></stop>
            <stop stop-color="#030049" stop-opacity="0.5" offset="100%"></stop>
        </linearGradient>
        <rect id="path-4" x="-231" y="-68" width="2239" height="1241"></rect>
        <filter x="-1.4%" y="-2.5%" width="102.7%" height="104.9%" filterUnits="objectBoundingBox" id="filter-5">
            <feGaussianBlur stdDeviation="10" in="SourceGraphic"></feGaussianBlur>
        </filter>
        <linearGradient x1="0.25781251%" y1="49.7500002%" x2="101.257813%" y2="49.7500002%" id="linearGradient-6">
            <stop stop-color="#238CC8" offset="0%"></stop>
            <stop stop-color="#53A0FD" stop-opacity="0.6" offset="47.5247532%"></stop>
            <stop stop-color="#B4EC51" stop-opacity="0.7" offset="100%"></stop>
        </linearGradient>
        <filter x="-30.3%" y="-30.3%" width="160.6%" height="160.6%" filterUnits="objectBoundingBox" id="filter-7">
            <feGaussianBlur stdDeviation="10" in="SourceGraphic"></feGaussianBlur>
        </filter>
        <filter x="-52.6%" y="-52.6%" width="205.3%" height="205.3%" filterUnits="objectBoundingBox" id="filter-8">
            <feGaussianBlur stdDeviation="10" in="SourceGraphic"></feGaussianBlur>
        </filter>
        <filter x="-93.8%" y="-93.8%" width="287.5%" height="287.5%" filterUnits="objectBoundingBox" id="filter-9">
            <feGaussianBlur stdDeviation="10" in="SourceGraphic"></feGaussianBlur>
        </filter>
        <filter x="-142.9%" y="-142.9%" width="385.7%" height="385.7%" filterUnits="objectBoundingBox" id="filter-10">
            <feGaussianBlur stdDeviation="10" in="SourceGraphic"></feGaussianBlur>
        </filter>
        <filter x="-187.5%" y="-187.5%" width="475.0%" height="475.0%" filterUnits="objectBoundingBox" id="filter-11">
            <feGaussianBlur stdDeviation="10" in="SourceGraphic"></feGaussianBlur>
        </filter>
        <filter x="-250.0%" y="-250.0%" width="600.0%" height="600.0%" filterUnits="objectBoundingBox" id="filter-12">
            <feGaussianBlur stdDeviation="10" in="SourceGraphic"></feGaussianBlur>
        </filter>
        <filter x="-60.0%" y="-60.0%" width="220.0%" height="220.0%" filterUnits="objectBoundingBox" id="filter-13">
            <feGaussianBlur stdDeviation="10" in="SourceGraphic"></feGaussianBlur>
        </filter>
        <filter x="-103.4%" y="-103.4%" width="306.9%" height="306.9%" filterUnits="objectBoundingBox" id="filter-14">
            <feGaussianBlur stdDeviation="10" in="SourceGraphic"></feGaussianBlur>
        </filter>
        <filter x="-187.5%" y="-187.5%" width="475.0%" height="475.0%" filterUnits="objectBoundingBox" id="filter-15">
            <feGaussianBlur stdDeviation="10" in="SourceGraphic"></feGaussianBlur>
        </filter>
        <filter x="-272.7%" y="-272.7%" width="645.5%" height="645.5%" filterUnits="objectBoundingBox" id="filter-16">
            <feGaussianBlur stdDeviation="10" in="SourceGraphic"></feGaussianBlur>
        </filter>
        <filter x="-375.0%" y="-375.0%" width="850.0%" height="850.0%" filterUnits="objectBoundingBox" id="filter-17">
            <feGaussianBlur stdDeviation="10" in="SourceGraphic"></feGaussianBlur>
        </filter>
        <filter x="-500.0%" y="-500.0%" width="1100.0%" height="1100.0%" filterUnits="objectBoundingBox" id="filter-18">
            <feGaussianBlur stdDeviation="10" in="SourceGraphic"></feGaussianBlur>
        </filter>
        <filter x="-53.6%" y="-53.6%" width="207.1%" height="207.1%" filterUnits="objectBoundingBox" id="filter-19">
            <feGaussianBlur stdDeviation="10" in="SourceGraphic"></feGaussianBlur>
        </filter>
        <filter x="-93.8%" y="-93.8%" width="287.5%" height="287.5%" filterUnits="objectBoundingBox" id="filter-20">
            <feGaussianBlur stdDeviation="10" in="SourceGraphic"></feGaussianBlur>
        </filter>
        <filter x="-166.7%" y="-166.7%" width="433.3%" height="433.3%" filterUnits="objectBoundingBox" id="filter-21">
            <feGaussianBlur stdDeviation="10" in="SourceGraphic"></feGaussianBlur>
        </filter>
        <filter x="-250.0%" y="-250.0%" width="600.0%" height="600.0%" filterUnits="objectBoundingBox" id="filter-22">
            <feGaussianBlur stdDeviation="10" in="SourceGraphic"></feGaussianBlur>
        </filter>
        <filter x="-333.3%" y="-333.3%" width="766.7%" height="766.7%" filterUnits="objectBoundingBox" id="filter-23">
            <feGaussianBlur stdDeviation="10" in="SourceGraphic"></feGaussianBlur>
        </filter>
        <filter x="-428.6%" y="-428.6%" width="957.1%" height="957.1%" filterUnits="objectBoundingBox" id="filter-24">
            <feGaussianBlur stdDeviation="10" in="SourceGraphic"></feGaussianBlur>
        </filter>
        <filter x="-37.5%" y="-37.5%" width="175.0%" height="175.0%" filterUnits="objectBoundingBox" id="filter-25">
            <feGaussianBlur stdDeviation="10" in="SourceGraphic"></feGaussianBlur>
        </filter>
        <filter x="-65.2%" y="-65.2%" width="230.4%" height="230.4%" filterUnits="objectBoundingBox" id="filter-26">
            <feGaussianBlur stdDeviation="10" in="SourceGraphic"></feGaussianBlur>
        </filter>
        <filter x="-120.0%" y="-120.0%" width="340.0%" height="340.0%" filterUnits="objectBoundingBox" id="filter-27">
            <feGaussianBlur stdDeviation="10" in="SourceGraphic"></feGaussianBlur>
        </filter>
        <filter x="-176.5%" y="-176.5%" width="452.9%" height="452.9%" filterUnits="objectBoundingBox" id="filter-28">
            <feGaussianBlur stdDeviation="10" in="SourceGraphic"></feGaussianBlur>
        </filter>
        <filter x="-230.8%" y="-230.8%" width="561.5%" height="561.5%" filterUnits="objectBoundingBox" id="filter-29">
            <feGaussianBlur stdDeviation="10" in="SourceGraphic"></feGaussianBlur>
        </filter>
        <filter x="-300.0%" y="-300.0%" width="700.0%" height="700.0%" filterUnits="objectBoundingBox" id="filter-30">
            <feGaussianBlur stdDeviation="10" in="SourceGraphic"></feGaussianBlur>
        </filter>
        <filter x="-11.0%" y="-11.0%" width="122.1%" height="122.1%" filterUnits="objectBoundingBox" id="filter-31">
            <feGaussianBlur stdDeviation="10" in="SourceGraphic"></feGaussianBlur>
        </filter>
        <filter x="-21.9%" y="-21.9%" width="143.8%" height="143.8%" filterUnits="objectBoundingBox" id="filter-32">
            <feGaussianBlur stdDeviation="10" in="SourceGraphic"></feGaussianBlur>
        </filter>
        <filter x="-43.5%" y="-43.5%" width="187.0%" height="187.0%" filterUnits="objectBoundingBox" id="filter-33">
            <feGaussianBlur stdDeviation="10" in="SourceGraphic"></feGaussianBlur>
        </filter>
        <filter x="-69.8%" y="-69.8%" width="239.5%" height="239.5%" filterUnits="objectBoundingBox" id="filter-34">
            <feGaussianBlur stdDeviation="10" in="SourceGraphic"></feGaussianBlur>
        </filter>
        <filter x="-100.0%" y="-100.0%" width="300.0%" height="300.0%" filterUnits="objectBoundingBox" id="filter-35">
            <feGaussianBlur stdDeviation="10" in="SourceGraphic"></feGaussianBlur>
        </filter>
        <filter x="-142.9%" y="-142.9%" width="385.7%" height="385.7%" filterUnits="objectBoundingBox" id="filter-36">
            <feGaussianBlur stdDeviation="10" in="SourceGraphic"></feGaussianBlur>
        </filter>
        <filter x="-176.5%" y="-176.5%" width="452.9%" height="452.9%" filterUnits="objectBoundingBox" id="filter-37">
            <feGaussianBlur stdDeviation="10" in="SourceGraphic"></feGaussianBlur>
        </filter>
        <filter x="-24.8%" y="-24.8%" width="149.6%" height="149.6%" filterUnits="objectBoundingBox" id="filter-38">
            <feGaussianBlur stdDeviation="10" in="SourceGraphic"></feGaussianBlur>
        </filter>
        <filter x="-42.9%" y="-42.9%" width="185.7%" height="185.7%" filterUnits="objectBoundingBox" id="filter-39">
            <feGaussianBlur stdDeviation="10" in="SourceGraphic"></feGaussianBlur>
        </filter>
        <filter x="-78.9%" y="-78.9%" width="257.9%" height="257.9%" filterUnits="objectBoundingBox" id="filter-40">
            <feGaussianBlur stdDeviation="10" in="SourceGraphic"></feGaussianBlur>
        </filter>
        <filter x="-115.4%" y="-115.4%" width="330.8%" height="330.8%" filterUnits="objectBoundingBox" id="filter-41">
            <feGaussianBlur stdDeviation="10" in="SourceGraphic"></feGaussianBlur>
        </filter>
        <filter x="-157.9%" y="-157.9%" width="415.8%" height="415.8%" filterUnits="objectBoundingBox" id="filter-42">
            <feGaussianBlur stdDeviation="10" in="SourceGraphic"></feGaussianBlur>
        </filter>
        <filter x="-200.0%" y="-200.0%" width="500.0%" height="500.0%" filterUnits="objectBoundingBox" id="filter-43">
            <feGaussianBlur stdDeviation="10" in="SourceGraphic"></feGaussianBlur>
        </filter>
        <path d="M101.749466,0.399071429 L103.839328,0.399071429 L103.839328,4.90831429 L110.681032,4.90831429 L110.681032,6.88992857 L103.839328,6.88992857 L103.839328,11.1697714 L108.390981,11.1697714 L108.733935,11.0836143 L110.137362,11.6867143 C108.934651,15.6219286 106.902211,18.7526571 104.325575,21.1365143 C106.380141,22.8253 108.833503,24.0584571 111.684081,24.8344 L111.684081,24.8677 C111.229443,25.3058857 110.646262,26.1167143 110.337023,26.6796429 C107.360011,25.7609857 104.812349,24.3819429 102.694039,22.5150286 C100.261223,24.3819429 97.4838716,25.7033714 94.5637543,26.6225571 C94.335118,26.0474714 93.8198962,25.1578857 93.4189925,24.6980286 C96.195817,23.9511571 98.8583233,22.7449571 101.176822,21.0503571 C99.1728299,18.8964286 97.5987165,16.2535714 96.4824025,13.1804571 L96.567746,13.1513857 L95.6231726,13.1513857 L95.6231726,11.1697714 L101.749466,11.1697714 L101.749466,6.88992857 L95.0505283,6.88992857 L95.0505283,4.90831429 L101.749466,4.90831429 L101.749466,0.399071429 Z M98.5717377,13.1513857 C99.5452858,15.6504714 100.976633,17.9196286 102.77991,19.758 C104.755454,17.9772429 106.358542,15.7657 107.388458,13.1513857 L98.5717377,13.1513857 Z M77.3306899,0.399071429 L79.4205519,0.399071429 L79.4205519,17.0575286 L82.7700207,16.5411143 L83.0845273,18.4941857 L79.4205519,19.0972857 L79.4205519,26.5940143 L77.3306899,26.5940143 L77.3306899,19.4419143 L67.9987474,20.9927429 L67.6552661,18.9535143 L77.3306899,17.4026857 L77.3306899,0.399071429 Z M89.3825612,0.427614286 L91.4724232,0.427614286 L91.4724232,6.1716 L94.6496246,6.1716 L94.6496246,8.18281429 L91.4724232,8.18281429 L91.4724232,13.8697143 C92.5028669,13.5827 93.5907331,13.2660857 94.6496246,12.9505286 L94.9077623,14.9036 C93.7624737,15.2482286 92.589264,15.5928571 91.4724232,15.9380143 L91.4724232,24.0663857 C91.4724232,25.2725857 91.1573898,25.8471429 90.4135317,26.1917714 C89.6981214,26.5364 88.4948835,26.5940143 86.5488411,26.5654714 C86.4629707,26.0189286 86.1479373,25.1864286 85.8618786,24.6118714 C87.2358035,24.6404143 88.4664356,24.6404143 88.8104437,24.6118714 C89.2392684,24.6118714 89.3825612,24.4681 89.3825612,24.0663857 L89.3825612,16.5696571 L85.9472221,17.575 L85.3461299,15.4781571 C86.4914186,15.2196857 87.8653435,14.8750571 89.3825612,14.4442714 L89.3825612,8.18281429 L85.7185858,8.18281429 L85.7185858,6.1716 L89.3825612,6.1716 L89.3825612,0.427614286 Z M29.3808155,2.23744286 L30.554552,0.7437 C32.1860878,1.4615 34.1331839,2.6677 35.1062051,3.6445 L33.8465983,5.31055714 C32.9304727,4.33375714 30.9839035,3.01285714 29.3808155,2.23744286 Z M57.1775082,3.09901429 C60.3836842,2.58207143 64.1335299,1.74851429 66.2802876,0.801314286 L67.568869,2.49538571 C66.5099775,2.9267 65.1929482,3.32841429 63.8190233,3.6445 L63.8190233,8.44075714 L68.0271952,8.44075714 L68.0271952,10.4519714 L63.8190233,10.4519714 L63.8190233,10.9683857 C64.7061742,11.9742571 67.1679653,15.1335286 67.7695843,15.9089429 L66.4810029,17.575 C65.9947556,16.6272714 64.7920445,14.7598286 63.8190233,13.2951571 L63.8190233,26.5940143 L61.7291613,26.5940143 L61.7291613,13.8982571 C60.5554248,16.7710429 59.0671818,19.6142286 57.5784119,21.3949857 C57.3776966,20.8204286 56.8630016,19.9583286 56.5189935,19.4704571 C58.3227968,17.4312286 60.3262617,13.7544857 61.4431025,10.4519714 L56.9198973,10.4519714 L56.9198973,8.44075714 L61.7291613,8.44075714 L61.7291613,4.10382857 C60.412132,4.36282857 59.0671818,4.59222857 57.807575,4.76454286 C57.69273,4.30521429 57.4066713,3.55834286 57.1775082,3.09901429 Z M38.5989667,1.14541429 L40.5455359,1.14541429 L40.5455359,6.37298571 L44.3528041,6.37298571 L44.3528041,8.35512857 L40.5455359,8.35512857 L40.5455359,13.5250857 L43.5794445,13.5250857 L43.5794445,22.8025714 L37.1960671,22.8025714 L37.1960671,25.0717286 L35.3063935,25.0717286 L35.3063935,13.5250857 L38.5989667,13.5250857 L38.5989667,8.35512857 L34.3333723,8.35512857 L34.3333723,6.37298571 L38.5989667,6.37298571 L38.5989667,1.14541429 Z M37.1960671,20.9065857 L41.6902977,20.9065857 L41.6902977,15.392 L37.1960671,15.392 L37.1960671,20.9065857 Z M45.5265406,1.49057143 L53.4555835,1.49057143 L53.4555835,24.0373143 C53.4555835,25.1288143 53.1984994,25.6748286 52.4830891,26.0189286 C51.7676788,26.3350143 50.6503112,26.3926286 48.7042687,26.3640857 C48.6183984,25.8756857 48.3318129,25.0717286 48.074202,24.5542571 C49.419679,24.5833286 50.6218633,24.5833286 50.9658714,24.5833286 C51.3662483,24.5542571 51.5095411,24.4390286 51.5095411,24.0087714 L51.5095411,17.1442143 L47.2444735,17.1442143 C46.9004655,20.5334143 46.0133146,24.1234714 43.636867,26.7081857 C43.3508082,26.3640857 42.5210798,25.7609857 42.0622268,25.5596 C45.2115072,22.1413286 45.5265406,17.1442143 45.5265406,13.0943 L45.5265406,1.49057143 Z M47.4156873,8.29751429 L51.5095411,8.29751429 L51.5095411,3.41457143 L47.4156873,3.41457143 L47.4156873,8.29751429 Z M47.4156873,13.0943 C47.4156873,13.7544857 47.4156873,14.5018857 47.3582648,15.2196857 L51.5095411,15.2196857 L51.5095411,10.2220429 L47.4156873,10.2220429 L47.4156873,13.0943 Z M2.84372957,1.49057143 L22.3383966,1.49057143 L22.3383966,11.3135429 L13.6359941,11.3135429 L13.6359941,13.6688571 L22.8825931,13.6688571 L22.8825931,15.4205429 L13.6359941,15.4205429 L13.6359941,18.0057857 L25.2874886,18.0057857 L25.2874886,19.9012429 L0.0100094224,19.9012429 L0.0100094224,18.0057857 L11.5466589,18.0057857 L11.5466589,15.4205429 L2.35748237,15.4205429 L2.35748237,13.6688571 L11.5466589,13.6688571 L11.5466589,11.3135429 L2.84372957,11.3135429 L2.84372957,1.49057143 Z M13.6359941,9.50371429 L20.2206136,9.50371429 L20.2206136,3.29987143 L13.6359941,3.29987143 L13.6359941,9.50371429 Z M4.87616912,9.50371429 L11.5461321,9.50371429 L11.5461321,3.29987143 L4.87616912,3.29987143 L4.87616912,9.50371429 Z M69.9737644,3.61595714 L71.3192415,2.38068571 C73.0366477,3.47218571 75.0406394,5.1097 75.9857396,6.31537143 L74.5254176,7.69441429 C73.6382666,6.48821429 71.6621959,4.79361429 69.9737644,3.61595714 Z M14.9240487,8.52691429 C15.6689605,7.29217143 16.6419817,5.33962857 17.1287557,3.98912857 L18.7887394,4.62077143 C17.9874588,6.1716 17.0428854,7.95288571 16.2985005,9.102 L14.9240487,8.52691429 Z M6.47978395,4.5066 L7.8821567,4.01767143 C8.71241194,5.33962857 9.51369254,7.09131429 9.74285563,8.21135714 L8.25461257,8.78591429 C8.02544948,7.66587143 7.2520899,5.85604286 6.47978395,4.5066 Z M28.179158,9.93502857 L29.323393,8.41221429 C30.9839035,9.04438571 33.0453177,10.1935 34.0473135,11.0550714 L32.8446024,12.7787429 C31.8426066,11.8590286 29.8391417,10.6528286 28.179158,9.93502857 Z M68.8574504,11.0836143 L70.1739529,9.8198 C72.006204,10.9398429 74.238832,12.6344429 75.2982503,13.8697143 L73.8953508,15.2767714 C72.8649071,14.0134857 70.6607269,12.2327286 68.8574504,11.0836143 Z M28.7228277,25.1864286 C29.8675895,23.0034286 31.4991253,19.2696 32.6733886,16.0812571 L34.3623469,17.2018286 C33.3029286,20.1887857 31.8426066,23.6926857 30.6114476,26.3064714 L28.7228277,25.1864286 Z M19.7338396,21.7110714 L21.6514342,21.0503571 C23.0543337,22.4579429 24.6574218,24.5257143 25.4302545,25.8756857 L23.3693671,26.6796429 C22.6824047,25.3587429 21.1077645,23.2333571 19.7338396,21.7110714 Z M0.0384572543,25.8186 C1.32703868,24.7265714 2.52922299,22.8025714 3.21618545,21.0503571 L5.248625,21.5382286 C4.5332147,23.3771286 3.38739925,25.4734429 2.01400114,26.7658 L0.0384572543,25.8186 Z M13.9510275,21.8257714 L15.9265714,21.4235286 C16.5845592,22.8601857 17.3004963,24.7841857 17.5581072,25.9618429 L15.4682452,26.4787857 C15.2106343,25.2725857 14.5526465,23.3195143 13.9510275,21.8257714 Z M8.08287196,21.7686857 L10.057889,21.6243857 C10.4298181,23.0895857 10.6879558,25.0717286 10.6879558,26.1917714 L8.59756699,26.4787857 C8.59756699,25.3011286 8.39790536,23.3195143 8.08287196,21.7686857 Z" id="path-44"></path>
        <path d="M27.5,2.4753 L27.5,2.4753 C27.0469048,2.73958571 26.6058571,3.02342857 26.1784286,3.32471429 C23.8322857,2.08732857 21.164,1.3875 18.3333333,1.3875 C8.96761905,1.3875 1.375,9.04914286 1.375,18.5 C1.375,27.9513857 8.96761905,35.6125 18.3333333,35.6125 C21.164,35.6125 23.8322857,34.9132 26.1784286,33.6752857 C26.6058571,33.9771 27.0469048,34.2604143 27.5,34.5252286 C24.8034286,36.0993143 21.672619,37 18.3333333,37 C8.20809524,37 0,28.7172857 0,18.5 C0,8.28271429 8.20809524,0 18.3333333,0 C21.672619,0 24.8034286,0.901214286 27.5,2.4753 M23.1539524,5.99717143 L23.1539524,5.99717143 C22.8239524,6.3603 22.5080952,6.73664286 22.2074286,7.12514286 C20.9927143,6.70387143 19.6894762,6.475 18.3333333,6.475 C11.7521905,6.475 6.41666667,11.8590286 6.41666667,18.5 C6.41666667,25.1415 11.7521905,30.525 18.3333333,30.525 C19.6894762,30.525 20.9927143,30.2966571 22.2074286,29.8753857 C22.5080952,30.2638857 22.8239524,30.6402286 23.1539524,31.0033571 C21.6595238,31.5906 20.033619,31.9125 18.3333333,31.9125 C10.9926667,31.9125 5.04166667,25.9079286 5.04166667,18.5 C5.04166667,11.0926 10.9926667,5.0875 18.3333333,5.0875 C20.033619,5.0875 21.6595238,5.40992857 23.1539524,5.99717143 M20.1865714,10.3859 L20.1865714,10.3859 C19.9812381,10.8098143 19.7910952,11.2421857 19.6182381,11.6835429 C19.2018095,11.6042571 18.7722857,11.5625 18.3333333,11.5625 C14.5362381,11.5625 11.4583333,14.6689143 11.4583333,18.5 C11.4583333,22.3316143 14.5362381,25.4375 18.3333333,25.4375 C18.7722857,25.4375 19.2018095,25.3962714 19.6182381,25.3169857 C19.7910952,25.7578143 19.9812381,26.1907143 20.1865714,26.6141 C19.5904762,26.7525857 18.9702857,26.825 18.3333333,26.825 C13.7772381,26.825 10.0833333,23.0980429 10.0833333,18.5 C10.0833333,13.9024857 13.7772381,10.175 18.3333333,10.175 C18.9702857,10.175 19.5904762,10.2479429 20.1865714,10.3859 M36.6666667,37 C26.5414286,37 18.3333333,28.7172857 18.3333333,18.5 C18.3333333,8.28271429 26.5414286,0 36.6666667,0 C46.7919048,0 55,8.28271429 55,18.5 C55,28.7172857 46.7919048,37 36.6666667,37 M27.5,2.4753 L27.5,2.4753 C27.0469048,2.73958571 26.6058571,3.02342857 26.1784286,3.32471429 C31.594619,6.18217143 35.2916667,11.9055429 35.2916667,18.5 C35.2916667,25.0949857 31.594619,30.8183571 26.1784286,33.6752857 C26.6058571,33.9771 27.0469048,34.2604143 27.5,34.5252286 C32.9795714,31.3263143 36.6666667,25.3476429 36.6666667,18.5 C36.6666667,11.6523571 32.9795714,5.67368571 27.5,2.4753 M23.1539524,5.99717143 C28.1118095,7.94495714 31.625,12.8083429 31.625,18.5 C31.625,24.1916571 28.1118095,29.0555714 23.1539524,31.0033571 C22.8239524,30.6402286 22.5080952,30.2638857 22.2074286,29.8753857 C26.8871429,28.2532 30.25,23.7725 30.25,18.5 C30.25,13.2275 26.8871429,8.74732857 22.2074286,7.12514286 C22.5080952,6.73664286 22.8239524,6.3603 23.1539524,5.99717143 M20.1865714,10.3859 L20.1865714,10.3859 C19.9812381,10.8098143 19.7910952,11.2421857 19.6182381,11.6835429 C22.8009048,12.2908714 25.2083333,15.1118571 25.2083333,18.5 C25.2083333,21.8886714 22.8009048,24.7096571 19.6182381,25.3169857 C19.7910952,25.7578143 19.9812381,26.1907143 20.1865714,26.6141 C23.850619,25.7657429 26.5833333,22.4553 26.5833333,18.5 C26.5833333,14.5452286 23.850619,11.2342571 20.1865714,10.3859" id="path-46"></path>
        <filter x="-12.7%" y="-13.5%" width="125.5%" height="137.8%" filterUnits="objectBoundingBox" id="filter-47">
            <feOffset dx="0" dy="2" in="SourceAlpha" result="shadowOffsetOuter1"></feOffset>
            <feGaussianBlur stdDeviation="2" in="shadowOffsetOuter1" result="shadowBlurOuter1"></feGaussianBlur>
            <feColorMatrix values="0 0 0 0 0.317647059   0 0 0 0 0.454901961   0 0 0 0 0.505882353  0 0 0 1 0" type="matrix" in="shadowBlurOuter1"></feColorMatrix>
        </filter>
    </defs>
    <g id="深色" stroke="none" stroke-width="1" fill="none" fill-rule="evenodd">
        <g id="矩形" filter="url(#filter-5)">
            <use fill="url(#linearGradient-1)" xlink:href="#path-4"></use>
            <use fill-opacity="0.2" fill="url(#linearGradient-2)" xlink:href="#path-4"></use>
            <use stroke="#979797" stroke-width="1" fill-opacity="0.2" fill="url(#linearGradient-3)" xlink:href="#path-4"></use>
        </g>
        <path d="M380.073934,755.498078 C585.497929,360.970118 866.121778,225.351132 1221.94548,348.641119 C1755.68104,533.5761 1453.04748,-267.808818 1816.20775,-218.492823 C2179.36803,-169.176828 2146.35346,410.286113 2289.4166,508.918103 C2384.79202,574.672763 2434.31388,710.291749 2437.98216,915.775061 L2457.57151,1273.31603 L374.571506,1273.31603 L380.073934,755.498078 Z" id="路径-4" fill-opacity="0.3" fill="url(#linearGradient-6)" transform="translate(1416.071506, 526.316025) rotate(-379.000000) translate(-1416.071506, -526.316025) "></path>
        <g id="编组-2" transform="translate(522.000000, 872.000000)">
            <circle id="椭圆形" fill="#80BCCD" opacity="0.415108817" filter="url(#filter-7)" cx="49.5" cy="49.5" r="49.5"></circle>
            <circle id="椭圆形" fill="#71AEC0" filter="url(#filter-8)" cx="49.5" cy="49.5" r="28.5"></circle>
            <circle id="椭圆形" fill="#93CEE0" filter="url(#filter-9)" cx="50" cy="42" r="16"></circle>
            <circle id="椭圆形" fill="#A3D8E9" filter="url(#filter-10)" cx="49.5" cy="42.5" r="10.5"></circle>
            <circle id="椭圆形" fill="#BBE9F8" filter="url(#filter-11)" cx="50" cy="42" r="8"></circle>
            <circle id="椭圆形" fill="#C8ECF8" filter="url(#filter-12)" cx="50" cy="42" r="6"></circle>
            <circle id="椭圆形" fill="#D8F5FF" cx="50.5" cy="41.5" r="2.5"></circle>
        </g>
        <g id="编组-2" transform="translate(134.000000, 774.000000)">
            <circle id="椭圆形" fill="#80BCCD" opacity="0.415108817" filter="url(#filter-13)" cx="25" cy="25" r="25"></circle>
            <circle id="椭圆形" fill="#71AEC0" filter="url(#filter-14)" cx="25.5" cy="25.5" r="14.5"></circle>
            <circle id="椭圆形" fill="#93CEE0" filter="url(#filter-15)" cx="25" cy="21" r="8"></circle>
            <circle id="椭圆形" fill="#A3D8E9" filter="url(#filter-16)" cx="25.5" cy="21.5" r="5.5"></circle>
            <circle id="椭圆形" fill="#BBE9F8" filter="url(#filter-17)" cx="25" cy="21" r="4"></circle>
            <circle id="椭圆形" fill="#C8ECF8" filter="url(#filter-18)" cx="25" cy="21" r="3"></circle>
            <circle id="椭圆形" fill="#D8F5FF" cx="25.5" cy="20.5" r="1.5"></circle>
        </g>
        <g id="编组-2" transform="translate(1655.000000, 59.000000)">
            <circle id="椭圆形" fill="#80BCCD" opacity="0.415108817" filter="url(#filter-19)" cx="28" cy="28" r="28"></circle>
            <circle id="椭圆形" fill="#71AEC0" filter="url(#filter-20)" cx="28" cy="28" r="16"></circle>
            <circle id="椭圆形" fill="#93CEE0" filter="url(#filter-21)" cx="28" cy="24" r="9"></circle>
            <circle id="椭圆形" fill="#A3D8E9" filter="url(#filter-22)" cx="28" cy="24" r="6"></circle>
            <circle id="椭圆形" fill="#BBE9F8" filter="url(#filter-23)" cx="28.5" cy="23.5" r="4.5"></circle>
            <circle id="椭圆形" fill="#C8ECF8" filter="url(#filter-24)" cx="28.5" cy="23.5" r="3.5"></circle>
            <circle id="椭圆形" fill="#D8F5FF" cx="28.5" cy="23.5" r="1.5"></circle>
        </g>
        <g id="编组-5" transform="translate(387.000000, 119.000000)">
            <g id="编组-2" transform="translate(446.000000, 390.000000)">
                <circle id="椭圆形" fill="#80BCCD" opacity="0.415108817" filter="url(#filter-25)" cx="40" cy="40" r="40"></circle>
                <circle id="椭圆形" fill="#71AEC0" filter="url(#filter-26)" cx="40" cy="40" r="23"></circle>
                <circle id="椭圆形" fill="#93CEE0" filter="url(#filter-27)" cx="40.5" cy="34.5" r="12.5"></circle>
                <circle id="椭圆形" fill="#A3D8E9" filter="url(#filter-28)" cx="40.5" cy="33.5" r="8.5"></circle>
                <circle id="椭圆形" fill="#BBE9F8" filter="url(#filter-29)" cx="40.5" cy="34.5" r="6.5"></circle>
                <circle id="椭圆形" fill="#C8ECF8" filter="url(#filter-30)" cx="40" cy="34" r="5"></circle>
                <circle id="椭圆形" fill="#D8F5FF" cx="40.5" cy="34.5" r="2.5"></circle>
            </g>
            <g id="编组-2" transform="translate(834.000000, 481.000000)">
                <circle id="椭圆形" fill="#609AAB" opacity="0.415108817" filter="url(#filter-31)" cx="136" cy="136" r="136"></circle>
                <circle id="椭圆形" fill="#80BCCD" opacity="0.415108817" filter="url(#filter-32)" cx="132.5" cy="117.5" r="68.5"></circle>
                <circle id="椭圆形" fill="#87C7DA" filter="url(#filter-33)" cx="131.5" cy="113.5" r="34.5"></circle>
                <circle id="椭圆形" fill="#93CEE0" filter="url(#filter-34)" cx="132.5" cy="107.5" r="21.5"></circle>
                <circle id="椭圆形" fill="#A3D8E9" filter="url(#filter-35)" cx="132" cy="107" r="15"></circle>
                <circle id="椭圆形" fill="#BBE9F8" filter="url(#filter-36)" cx="132.5" cy="107.5" r="10.5"></circle>
                <circle id="椭圆形" fill="#C8ECF8" filter="url(#filter-37)" cx="132.5" cy="107.5" r="8.5"></circle>
                <circle id="椭圆形" fill="#D8F5FF" cx="132" cy="108" r="4"></circle>
            </g>
            <polyline id="路径-21" stroke="#A7DAEB" transform="translate(526.808584, 341.134826) rotate(-1.000000) translate(-526.808584, -341.134826) " points="92.0099035 47.1348256 364.009903 150.134826 484.009903 425.134826 779.009903 635.134826 961.607265 596.627196"></polyline>
            <circle id="椭圆形" fill="#D8F5FF" transform="translate(360.718741, 154.004992) rotate(-1.000000) translate(-360.718741, -154.004992) " cx="360.718741" cy="154.004992" r="4"></circle>
            <circle id="椭圆形" fill="#D8F5FF" transform="translate(787.102043, 630.636171) rotate(-1.000000) translate(-787.102043, -630.636171) " cx="787.102043" cy="630.636171" r="4"></circle>
            <polyline id="路径-11" stroke="#A4D7E8" transform="translate(1271.091376, 535.581495) rotate(-1.000000) translate(-1271.091376, -535.581495) " points="989.206666 581.070024 1226.88106 487.203717 1441.22509 583.959273 1552.97609 541.903191"></polyline>
            <circle id="椭圆形" fill="#D8F5FF" transform="translate(1442.112683, 581.051862) rotate(-1.000000) translate(-1442.112683, -581.051862) " cx="1442.11268" cy="581.051862" r="4"></circle>
            <circle id="椭圆形" fill="#D8F5FF" transform="translate(1226.112683, 489.051862) rotate(-1.000000) translate(-1226.112683, -489.051862) " cx="1226.11268" cy="489.051862" r="4"></circle>
            <g id="编组-2" transform="translate(-0.000000, 0.000000)">
                <circle id="椭圆形" fill="#80BCCD" opacity="0.415108817" filter="url(#filter-38)" cx="60.5" cy="60.5" r="60.5"></circle>
                <circle id="椭圆形" fill="#71AEC0" filter="url(#filter-39)" cx="61" cy="61" r="35"></circle>
                <circle id="椭圆形" fill="#93CEE0" filter="url(#filter-40)" cx="61" cy="52" r="19"></circle>
                <circle id="椭圆形" fill="#A3D8E9" filter="url(#filter-41)" cx="61" cy="51" r="13"></circle>
                <circle id="椭圆形" fill="#BBE9F8" filter="url(#filter-42)" cx="60.5" cy="51.5" r="9.5"></circle>
                <circle id="椭圆形" fill="#C8ECF8" filter="url(#filter-43)" cx="60.5" cy="51.5" r="7.5"></circle>
                <circle id="椭圆形" fill="#D8F5FF" cx="60.5" cy="51.5" r="3.5"></circle>
            </g>
        </g>
        <text id="让数据驱动制造" font-family="PingFangSC-Light, PingFang SC" font-size="24" font-weight="300" letter-spacing="60" fill="#FFFFFF">
            <tspan x="142" y="528">让数据驱动制造</tspan>
        </text>
        <g id="编组" transform="translate(52.000000, 32.000000)">
            <g transform="translate(62.000000, 4.000000)">
                <g transform="translate(0.580435, 0.757143)">
                    <mask id="mask-45" fill="white">
                        <use xlink:href="#path-44"></use>
                    </mask>
                    <g id="Clip-4"></g>
                </g>
            </g>
            <g id="Fill-5">
                <use fill="black" fill-opacity="1" filter="url(#filter-47)" xlink:href="#path-46"></use>
                <use fill="#FFFFFF" fill-rule="evenodd" xlink:href="#path-46"></use>
            </g>
        </g>
        <text id="黑湖智造MI" font-family="PingFangSC-Regular, PingFang SC" font-size="32" font-weight="normal" letter-spacing="1.688889" fill="#FFFFFF">
            <tspan x="113" y="62">黑湖智造MI</tspan>
        </text>
        <g id="编组" transform="translate(1772.500000, 313.000000) rotate(-360.000000) translate(-1772.500000, -313.000000) translate(1083.000000, -18.000000)">
            <path d="M91.5200465,419 C47.0295483,425.336445 16,439.634141 16,456.256871 C16,478.75868 72.8598368,497 143,497 C213.140163,497 270,478.75868 270,456.256871 C270,442.78872 249.630202,430.846871 218.235062,423.429138" id="路径" stroke="#FFFFFF"></path>
            <path d="M17.7142857,552.904762 C17.7142857,576.15332 74.2543259,595 144,595 L144,595 C213.745674,595 270.285714,576.15332 270.285714,552.904762 M17.7142857,459 L17.7142857,556.142857 M270.285714,459 L270.285714,556.142857" id="形状结合" stroke="#FFFFFF"></path>
            <path d="M81.4953996,459 C80.5160931,460.482337 80,462.022206 80,463.602064 C80,475.419818 108.877634,485 144.5,485 C180.122366,485 209,475.419818 209,463.602064" id="路径" stroke="#FFFFFF"></path>
            <path d="M131.418605,222.553738 L82,459" id="路径-4" stroke="#FFFFFF"></path>
            <path d="M203.428571,245.550691 L164.571429,483.449309" id="路径-5" stroke="#FFFFFF"></path>
            <path d="M244.1,256.242424 L209,467" id="路径-6" stroke="#FFFFFF"></path>
            <ellipse id="椭圆形" stroke="#FFFFFF" transform="translate(61.156797, 224.725503) rotate(1.000000) translate(-61.156797, -224.725503) " cx="61.1567969" cy="224.725503" rx="59.9991343" ry="38.7868363"></ellipse>
            <ellipse id="椭圆形" stroke="#36CFC9" cx="60" cy="235.5" rx="53" ry="27.5"></ellipse>
            <ellipse id="椭圆形" stroke="#13C2C2" cx="62" cy="243" rx="37" ry="19"></ellipse>
            <ellipse id="椭圆形" stroke="#FFFFFF" fill="#13C2C2" cx="61.5" cy="250" rx="23.5" ry="13"></ellipse>
            <ellipse id="椭圆形" fill="#1BEDD2" cx="61.5" cy="253.5" rx="17.5" ry="9.5"></ellipse>
            <path d="" id="路径-7" stroke="#979797"></path>
            <path d="" id="路径-8" stroke="#979797"></path>
            <path d="" id="路径-9" stroke="#979797"></path>
            <path d="M43,187.6 C43,170.533333 48.015873,162 58.047619,162 C73.0952381,162 517,322 517,322" id="路径" stroke="#FFFFFF"></path>
            <path d="M57,162.434722 C71.9538462,144.953241 84.4153846,134 94.3846154,134 C109.338462,134 543,311 543,311" id="形状" stroke="#FFFFFF"></path>
            <ellipse id="椭圆形" stroke="#FFFFFF" transform="translate(587.157778, 366.416501) rotate(13.000000) translate(-587.157778, -366.416501) " cx="587.157778" cy="366.416501" rx="91.8391191" ry="60.0191124"></ellipse>
            <ellipse id="椭圆形" stroke="#13C2C2" transform="translate(587.265160, 384.730332) rotate(13.000000) translate(-587.265160, -384.730332) " cx="587.26516" cy="384.730332" rx="73.4723582" ry="45.0909463"></ellipse>
            <ellipse id="椭圆形" stroke="#13C2C2" transform="translate(587.092653, 406.678323) rotate(13.000000) translate(-587.092653, -406.678323) " cx="587.092653" cy="406.678323" rx="50.2053857" ry="28.252122"></ellipse>
            <ellipse id="椭圆形" stroke="#FFFFFF" fill="#13C2C2" transform="translate(587.204153, 406.908796) rotate(13.000000) translate(-587.204153, -406.908796) " cx="587.204153" cy="406.908796" rx="36.7339748" ry="17.6611486"></ellipse>
            <ellipse id="椭圆形" fill="#1BEDD2" transform="translate(587.661375, 413.349903) rotate(13.000000) translate(-587.661375, -413.349903) " cx="587.661375" cy="413.349903" rx="24.490625" ry="14.1256625"></ellipse>
            <path d="M560,305.500249 C652.068577,120.946007 698.102865,28.6688864 698.102865,28.6688864 C698.102865,28.6688864 724.659449,-11.9924834 763.520012,3.53432349 C778.693156,9.59678005 782.614904,14.5673161 786.234299,22.6969142 C790.204766,31.6150618 787.479051,48.2675475 778.057155,72.6543714 L647.222862,324" id="形状" stroke="#FFFFFF"></path>
            <path d="M729.959717,82.7347199 C747.724989,87.4791304 765.035029,75.2771927 768.622772,55.4809293 C772.210516,35.6846659 760.717358,15.790519 742.952086,11.0461085 C725.186814,6.30169803 707.876775,18.5036357 704.289031,38.2998991 C700.701287,58.0961625 712.194445,77.9903094 729.959717,82.7347199 Z" id="椭圆形" stroke="#13C2C2" transform="translate(736.455902, 46.890414) rotate(-105.000000) translate(-736.455902, -46.890414) "></path>
            <path d="M713.058449,43.8857962 C712.1513,54.7951393 721.911051,65.0331858 734.857462,66.7531131 C747.803874,68.4730403 759.034403,61.0235469 759.941551,50.1142038 C760.8487,39.2048607 751.088949,28.9668142 738.142538,27.2468869 C725.196126,25.5269597 713.965597,32.9764531 713.058449,43.8857962 Z" id="椭圆形" stroke="#87E8DE" fill="#13C2C2"></path>
            <path d="M722.039795,43.8200574 C721.422162,51.4565975 728.067099,58.6232301 736.881677,59.8271791 C745.696255,61.0311282 753.342572,55.8164828 753.960205,48.1799426 C754.577838,40.5434025 747.932901,33.3767699 739.118323,32.1728209 C730.303745,30.9688718 722.657428,36.1835172 722.039795,43.8200574 Z" id="椭圆形" fill="#1BEDD2"></path>
            <path d="M116.388119,137.755167 L248.59787,131.674929 C265.31094,130.906306 279.482652,143.831835 280.251275,160.544904 C280.295998,161.517366 280.293819,162.491418 280.244748,163.463671 L280.244748,163.463671 L280.244748,163.463671 L97.3960995,171.872757 L98.2044173,155.85772 C98.6998698,146.04142 106.569702,138.206709 116.388119,137.755167 Z" id="矩形" stroke="#FFFFFF" transform="translate(189.661332, 151.007461) rotate(23.000000) translate(-189.661332, -151.007461) "></path>
            <path d="M236.887019,133.034712 C237.245808,125.686277 221.138003,120.456332 200.909229,121.353304 C180.680456,122.250277 163.990939,128.934501 163.63215,136.282937" id="路径" stroke="#FFFFFF" transform="translate(200.262524, 128.768061) rotate(22.000000) translate(-200.262524, -128.768061) "></path>
            <path d="M109.645717,593.54532 C118.380096,624.567708 129.245083,646.740744 142.240678,660.064426" id="路径-16" stroke="#FFFFFF" stroke-linecap="round" transform="translate(125.943198, 626.804873) rotate(-4.000000) translate(-125.943198, -626.804873) "></path>
            <path d="M182,595 C171.866667,629.133333 159.2,650.466667 144,659" id="路径-17" stroke="#FFFFFF" stroke-linecap="round"></path>
            <path d="M121,221 L505.420181,333.446078" id="路径-10" stroke="#FFFFFF"></path>
        </g>
        <g id="编组-4" transform="translate(873.482272, 544.851520) rotate(-1.000000) translate(-873.482272, -544.851520) translate(869.482272, 540.851520)" fill="#D8F5FF">
            <circle id="椭圆形" cx="4" cy="4" r="4"></circle>
        </g>
        <text id="黑湖制造智能" font-family="PingFangSC-Semibold, PingFang SC" font-size="71" font-weight="500" letter-spacing="19.7222222" fill="#FFFFFF">
            <tspan x="142" y="447">黑湖制造智能</tspan>
        </text>
    </g>
</svg>